<svg xmlns="http://www.w3.org/2000/svg" xmlns:xlink="http://www.w3.org/1999/xlink" width="500" zoomAndPan="magnify" viewBox="0 0 375 374.999991" height="500" preserveAspectRatio="xMidYMid meet" version="1.0"><defs><clipPath id="dccd23d9df"><path d="M 52.972656 27.648438 L 322.222656 27.648438 L 322.222656 337.398438 L 52.972656 337.398438 Z M 52.972656 27.648438 " clip-rule="nonzero"/></clipPath></defs><rect x="-37.5" width="450" fill="#ffffff" y="-37.499999" height="449.999989" fill-opacity="1"/><rect x="-37.5" width="450" fill="#ffffff" y="-37.499999" height="449.999989" fill-opacity="1"/><path fill="#737373" d="M 236.664062 98.820312 L 236.664062 306.335938 L 228.09375 311.292969 L 212.777344 302.40625 L 212.777344 112.609375 L 228.09375 103.765625 Z M 236.664062 98.820312 " fill-opacity="1" fill-rule="nonzero"/><path fill="#737373" d="M 162.203125 112.609375 L 162.203125 245.402344 L 138.300781 259.199219 L 138.300781 98.820312 L 146.886719 103.765625 Z M 162.203125 112.609375 " fill-opacity="1" fill-rule="nonzero"/><g clip-path="url(#dccd23d9df)"><path fill="#000000" d="M 320.640625 104.117188 L 188.859375 28.027344 C 188.8125 27.996094 188.765625 27.980469 188.714844 27.957031 C 188.628906 27.914062 188.546875 27.875 188.453125 27.839844 C 188.367188 27.808594 188.277344 27.785156 188.191406 27.757812 C 188.109375 27.738281 188.03125 27.71875 187.945312 27.707031 C 187.839844 27.691406 187.738281 27.679688 187.636719 27.675781 C 187.589844 27.675781 187.539062 27.660156 187.492188 27.660156 C 187.464844 27.660156 187.433594 27.671875 187.40625 27.671875 C 187.304688 27.675781 187.199219 27.6875 187.105469 27.699219 C 187.023438 27.710938 186.945312 27.726562 186.863281 27.738281 C 186.773438 27.757812 186.6875 27.789062 186.605469 27.820312 C 186.523438 27.851562 186.4375 27.875 186.363281 27.914062 C 186.277344 27.953125 186.207031 27.996094 186.128906 28.039062 C 186.054688 28.085938 185.976562 28.121094 185.910156 28.175781 C 185.835938 28.230469 185.769531 28.289062 185.703125 28.347656 C 185.632812 28.40625 185.570312 28.460938 185.507812 28.527344 C 185.449219 28.589844 185.402344 28.652344 185.347656 28.71875 C 185.285156 28.796875 185.226562 28.875 185.175781 28.957031 C 185.164062 28.980469 185.136719 29 185.125 29.03125 C 185.101562 29.074219 185.085938 29.121094 185.0625 29.171875 C 185.015625 29.257812 184.972656 29.351562 184.941406 29.441406 C 184.910156 29.527344 184.886719 29.609375 184.863281 29.695312 C 184.835938 29.78125 184.816406 29.863281 184.804688 29.953125 C 184.789062 30.050781 184.78125 30.148438 184.773438 30.242188 C 184.769531 30.296875 184.761719 30.34375 184.761719 30.398438 L 184.761719 329.984375 L 163.582031 317.761719 C 163.582031 317.761719 163.578125 317.761719 163.578125 317.761719 L 156.769531 313.839844 C 156.769531 313.839844 156.761719 313.839844 156.761719 313.839844 L 148.261719 308.921875 L 148.253906 308.917969 L 82.367188 270.875 C 82.367188 270.875 82.367188 270.875 82.363281 270.875 L 58.445312 257.074219 L 58.445312 108.066406 L 144.144531 58.59375 L 144.144531 99.03125 L 139.664062 96.453125 C 139.640625 96.4375 139.617188 96.4375 139.59375 96.425781 C 139.402344 96.320312 139.210938 96.234375 139 96.179688 C 138.988281 96.175781 138.976562 96.175781 138.960938 96.175781 C 138.769531 96.128906 138.570312 96.105469 138.367188 96.097656 C 138.308594 96.097656 138.25 96.097656 138.1875 96.105469 C 138.019531 96.109375 137.859375 96.132812 137.695312 96.167969 C 137.640625 96.175781 137.589844 96.1875 137.53125 96.207031 C 137.320312 96.265625 137.117188 96.339844 136.917969 96.457031 L 79.625 129.542969 C 78.78125 130.03125 78.257812 130.933594 78.257812 131.914062 L 78.257812 225.949219 C 78.257812 225.980469 78.265625 226.007812 78.265625 226.039062 C 78.269531 226.136719 78.28125 226.230469 78.292969 226.328125 C 78.304688 226.410156 78.320312 226.5 78.332031 226.582031 C 78.351562 226.667969 78.382812 226.746094 78.410156 226.835938 C 78.441406 226.921875 78.46875 227.003906 78.503906 227.085938 C 78.539062 227.164062 78.585938 227.242188 78.628906 227.316406 C 78.671875 227.390625 78.71875 227.46875 78.765625 227.539062 C 78.820312 227.609375 78.878906 227.671875 78.933594 227.742188 C 78.992188 227.808594 79.050781 227.878906 79.113281 227.9375 C 79.171875 227.992188 79.242188 228.042969 79.308594 228.097656 C 79.386719 228.160156 79.464844 228.21875 79.550781 228.269531 C 79.574219 228.285156 79.59375 228.304688 79.621094 228.320312 L 136.929688 261.566406 L 136.933594 261.570312 C 137.148438 261.691406 137.371094 261.785156 137.597656 261.847656 C 137.832031 261.910156 138.0625 261.941406 138.296875 261.941406 C 138.394531 261.941406 138.492188 261.910156 138.59375 261.902344 C 138.730469 261.886719 138.863281 261.882812 138.996094 261.847656 C 139.070312 261.828125 139.136719 261.785156 139.210938 261.761719 C 139.359375 261.707031 139.515625 261.660156 139.65625 261.578125 C 139.660156 261.578125 139.664062 261.570312 139.664062 261.570312 L 163.566406 247.773438 C 164.410156 247.285156 164.933594 246.382812 164.933594 245.402344 L 164.933594 112.609375 C 164.933594 111.628906 164.410156 110.726562 163.566406 110.234375 L 149.613281 102.183594 L 149.613281 53.847656 C 149.613281 53.796875 149.601562 53.746094 149.601562 53.695312 C 149.59375 53.597656 149.585938 53.5 149.570312 53.402344 C 149.554688 53.316406 149.535156 53.226562 149.511719 53.140625 C 149.488281 53.058594 149.46875 52.976562 149.433594 52.894531 C 149.402344 52.796875 149.355469 52.707031 149.308594 52.617188 C 149.285156 52.574219 149.273438 52.523438 149.246094 52.476562 C 149.230469 52.449219 149.210938 52.425781 149.191406 52.402344 C 149.140625 52.320312 149.082031 52.242188 149.023438 52.164062 C 148.96875 52.097656 148.921875 52.027344 148.863281 51.96875 C 148.800781 51.90625 148.734375 51.847656 148.667969 51.792969 C 148.601562 51.734375 148.53125 51.675781 148.464844 51.621094 C 148.390625 51.574219 148.320312 51.527344 148.242188 51.484375 C 148.164062 51.441406 148.089844 51.398438 148.007812 51.359375 C 147.929688 51.324219 147.84375 51.296875 147.761719 51.265625 C 147.671875 51.238281 147.589844 51.207031 147.503906 51.1875 C 147.425781 51.167969 147.34375 51.160156 147.261719 51.152344 C 147.160156 51.136719 147.0625 51.121094 146.960938 51.121094 C 146.929688 51.121094 146.902344 51.113281 146.871094 51.113281 C 146.824219 51.113281 146.777344 51.121094 146.726562 51.125 C 146.625 51.132812 146.523438 51.140625 146.421875 51.15625 C 146.339844 51.167969 146.257812 51.1875 146.179688 51.214844 C 146.089844 51.238281 146.003906 51.261719 145.917969 51.296875 C 145.824219 51.328125 145.742188 51.367188 145.65625 51.414062 C 145.605469 51.4375 145.558594 51.453125 145.507812 51.480469 L 54.339844 104.117188 C 53.496094 104.605469 52.972656 105.507812 52.972656 106.488281 L 52.972656 258.65625 C 52.972656 259.636719 53.496094 260.539062 54.339844 261.027344 L 79.625 275.621094 L 79.628906 275.621094 L 145.519531 313.664062 L 154.015625 318.574219 L 154.019531 318.574219 L 160.828125 322.5 C 160.828125 322.5 160.835938 322.507812 160.835938 322.507812 L 186.125 337.097656 C 186.15625 337.117188 186.191406 337.125 186.226562 337.144531 C 186.371094 337.222656 186.527344 337.285156 186.6875 337.332031 C 186.746094 337.351562 186.796875 337.371094 186.855469 337.386719 C 187.054688 337.433594 187.265625 337.464844 187.484375 337.46875 C 187.488281 337.46875 187.488281 337.46875 187.488281 337.46875 L 187.492188 337.46875 C 187.714844 337.46875 187.929688 337.433594 188.132812 337.386719 C 188.1875 337.371094 188.238281 337.351562 188.292969 337.335938 C 188.449219 337.289062 188.59375 337.230469 188.738281 337.15625 C 188.796875 337.128906 188.851562 337.097656 188.910156 337.066406 C 189.070312 336.96875 189.21875 336.855469 189.355469 336.726562 C 189.375 336.707031 189.398438 336.691406 189.417969 336.671875 C 189.574219 336.515625 189.699219 336.34375 189.816406 336.15625 C 189.832031 336.132812 189.851562 336.117188 189.859375 336.101562 C 189.890625 336.050781 189.898438 336.003906 189.921875 335.953125 C 189.96875 335.867188 190.007812 335.78125 190.039062 335.691406 C 190.074219 335.609375 190.097656 335.523438 190.117188 335.433594 C 190.140625 335.351562 190.160156 335.269531 190.175781 335.183594 C 190.191406 335.082031 190.199219 334.984375 190.207031 334.882812 C 190.210938 334.828125 190.21875 334.78125 190.21875 334.730469 L 190.21875 35.140625 L 316.523438 108.066406 L 316.523438 257.070312 L 296.699219 268.503906 L 296.699219 131.910156 C 296.699219 130.929688 296.179688 130.027344 295.332031 129.535156 L 238.027344 96.449219 C 237.832031 96.335938 237.625 96.257812 237.414062 96.195312 C 237.363281 96.179688 237.308594 96.171875 237.25 96.15625 C 237.085938 96.125 236.925781 96.097656 236.761719 96.09375 C 236.703125 96.09375 236.644531 96.089844 236.585938 96.089844 C 236.375 96.09375 236.171875 96.117188 235.972656 96.167969 C 235.96875 96.167969 235.960938 96.167969 235.953125 96.171875 C 235.746094 96.230469 235.546875 96.316406 235.359375 96.417969 C 235.339844 96.429688 235.3125 96.433594 235.292969 96.445312 L 211.402344 110.230469 C 210.554688 110.722656 210.035156 111.625 210.035156 112.605469 L 210.035156 302.398438 C 210.035156 303.375 210.554688 304.277344 211.398438 304.769531 L 226.71875 313.65625 C 227.144531 313.902344 227.617188 314.023438 228.09375 314.023438 C 228.566406 314.023438 229.039062 313.902344 229.464844 313.65625 L 238.035156 308.699219 C 238.878906 308.210938 239.40625 307.308594 239.40625 306.332031 L 239.40625 103.566406 L 291.234375 133.492188 L 291.234375 273.25 C 291.234375 273.300781 291.25 273.351562 291.25 273.402344 C 291.253906 273.5 291.265625 273.597656 291.277344 273.695312 C 291.292969 273.78125 291.3125 273.871094 291.335938 273.957031 C 291.359375 274.039062 291.386719 274.121094 291.414062 274.203125 C 291.449219 274.300781 291.492188 274.390625 291.535156 274.476562 C 291.558594 274.519531 291.570312 274.570312 291.597656 274.613281 C 291.609375 274.632812 291.628906 274.644531 291.644531 274.671875 C 291.757812 274.859375 291.886719 275.035156 292.046875 275.191406 C 292.066406 275.207031 292.085938 275.21875 292.105469 275.238281 C 292.238281 275.367188 292.394531 275.480469 292.554688 275.578125 C 292.609375 275.613281 292.667969 275.640625 292.726562 275.671875 C 292.867188 275.742188 293.015625 275.800781 293.171875 275.847656 C 293.226562 275.863281 293.277344 275.886719 293.332031 275.898438 C 293.535156 275.945312 293.75 275.980469 293.972656 275.980469 L 293.980469 275.980469 C 294.195312 275.980469 294.402344 275.945312 294.609375 275.898438 C 294.667969 275.882812 294.71875 275.863281 294.777344 275.84375 C 294.9375 275.796875 295.09375 275.734375 295.238281 275.65625 C 295.273438 275.636719 295.308594 275.632812 295.339844 275.617188 L 320.640625 261.023438 C 321.488281 260.535156 322.007812 259.628906 322.007812 258.652344 L 322.007812 106.488281 C 322.007812 105.507812 321.484375 104.605469 320.640625 104.117188 Z M 135.566406 103.566406 L 135.566406 254.449219 L 83.734375 224.375 L 83.734375 133.492188 Z M 159.464844 243.820312 L 141.039062 254.457031 L 141.039062 103.558594 L 159.464844 114.1875 Z M 233.925781 304.753906 L 228.097656 308.121094 L 215.511719 300.824219 L 215.511719 114.191406 L 233.925781 103.5625 Z M 233.925781 304.753906 " fill-opacity="1" fill-rule="nonzero"/></g></svg>